<svg xmlns="http://www.w3.org/2000/svg" viewBox="0 0 36.89 36.89"><defs><style>.cls-1{fill:#1f325e;}.cls-2{fill:#e4e8f6;}</style></defs><g id="Livello_2" data-name="Livello 2"><g id="Livello_1-2" data-name="Livello 1"><path class="cls-1" d="M7.14,35.89a2,2,0,0,1-2-2V31.81a2,2,0,0,1,2-2H29.75a2,2,0,0,1,2,2v2.05a2,2,0,0,1-2,2ZM8.7,29.72a1,1,0,0,1-.9-.56L1.21,15.58A1.94,1.94,0,0,1,1,14.69,2,2,0,0,1,1.9,13l1.91-1.07a1.86,1.86,0,0,1,1-.29,2.12,2.12,0,0,1,1.68.86,2,2,0,0,0,1.64.83h.15a2.21,2.21,0,0,0,1.94-2.25,1.87,1.87,0,0,1,1.86-1.86H14.6a1.85,1.85,0,0,1,1.81,1.43,2.08,2.08,0,0,0,4.07,0,1.85,1.85,0,0,1,1.81-1.43h2.49a1.86,1.86,0,0,1,1.86,1.86,2.21,2.21,0,0,0,1.68,2.22,2.71,2.71,0,0,0,.4,0,2,2,0,0,0,1.65-.83,2.12,2.12,0,0,1,1.69-.87,2,2,0,0,1,1.1.34l1.76,1a2.06,2.06,0,0,1,1,1.73,2,2,0,0,1-.21.9L29.1,29.16a1,1,0,0,1-.9.56Zm9.75-19.53A4.6,4.6,0,1,1,23,5.6,4.6,4.6,0,0,1,18.45,10.19Z"/><path class="cls-2" d="M18.45,2a3.6,3.6,0,1,1-3.6,3.6A3.6,3.6,0,0,1,18.45,2m6.33,8.22a.86.86,0,0,1,.86.86,3.2,3.2,0,0,0,2.5,3.2,2.78,2.78,0,0,0,.58.06,3.08,3.08,0,0,0,2.45-1.23,1.11,1.11,0,0,1,.89-.47.93.93,0,0,1,.54.17l1.83,1a1,1,0,0,1,.46.86,1,1,0,0,1-.11.46L28.2,28.72H8.7L2.11,15.15a1,1,0,0,1,.35-1.32l1.83-1a.94.94,0,0,1,.55-.17,1.09,1.09,0,0,1,.87.46,3,3,0,0,0,2.45,1.23h.22a3.2,3.2,0,0,0,2.87-3.25.87.87,0,0,1,.86-.86H14.6a.84.84,0,0,1,.83.64,3.08,3.08,0,0,0,6,0,.84.84,0,0,1,.83-.64h2.49m5,20.56a1,1,0,0,1,1,1v2.05a1,1,0,0,1-1,1H7.14a1,1,0,0,1-1-1V31.81a1,1,0,0,1,1-1H29.75M18.45,0A5.6,5.6,0,0,0,13.5,8.22H12.11a2.87,2.87,0,0,0-2.86,2.86,1.22,1.22,0,0,1-1,1.25H8.16a1,1,0,0,1-.84-.42,3.1,3.1,0,0,0-2.48-1.27,2.9,2.9,0,0,0-1.57.45l-1.79,1-.13.08A3,3,0,0,0,0,14.69,3,3,0,0,0,.32,16l6.21,12.8a3,3,0,0,0-2.42,3v2.05a3,3,0,0,0,3,3H29.75a3,3,0,0,0,3-3V31.81a3,3,0,0,0-2.42-3L36.58,16a3,3,0,0,0-1-3.85l-.13-.09-1.78-1a3,3,0,0,0-1.57-.45,3.14,3.14,0,0,0-2.49,1.27,1.05,1.05,0,0,1-.85.43l-.2,0a1.23,1.23,0,0,1-.88-1.24,2.87,2.87,0,0,0-2.86-2.86H23.39A5.5,5.5,0,0,0,24,5.6,5.6,5.6,0,0,0,18.45,0Zm0,11.31a1,1,0,0,1-.52-.14,4.43,4.43,0,0,0,.52,0,4.52,4.52,0,0,0,.52,0,1.07,1.07,0,0,1-.52.14Z"/></g></g></svg>