<svg xmlns="http://www.w3.org/2000/svg" viewBox="0 0 24.56 36.89"><defs><style>.cls-1{fill:#1f325e;}.cls-2{fill:#e4e8f6;}</style></defs><g id="Livello_2" data-name="Livello 2"><g id="Livello_1-2" data-name="Livello 1"><path class="cls-1" d="M3,35.89a2,2,0,0,1-2-2V31.81a2,2,0,0,1,2-2h18.5a2,2,0,0,1,2,2v2.05a2,2,0,0,1-2,2Zm3.08-6.17a1,1,0,0,1-1-1v-2.1c-2.42-1-3.6-3-3.6-6.13,0-4.6,3.29-10.9,6.57-14.29a3,3,0,0,1-.91-2.14A3.06,3.06,0,0,1,10.22,1h4.11a3.06,3.06,0,0,1,3.06,3.06,3,3,0,0,1-.92,2.15,25.78,25.78,0,0,1,3.77,5.27,1,1,0,0,1-.17,1.19l-6.59,6.59,0,0,6.1-6.1a1,1,0,0,1,.71-.3l.18,0a1,1,0,0,1,.73.57,18.41,18.41,0,0,1,1.8,7c0,3.1-1.18,5.11-3.59,6.13v2.1a1,1,0,0,1-1,1Z"/><path class="cls-2" d="M14.33,2a2.06,2.06,0,0,1,2.06,2.06,2,2,0,0,1-1.58,2A21.46,21.46,0,0,1,19.36,12L12.43,18.9a.51.51,0,0,0,0,.72l.73.73a.51.51,0,0,0,.72,0l6.45-6.45A17.14,17.14,0,0,1,22,20.49c0,3.32-1.42,4.75-3.59,5.44v2.79H6.11V25.93c-2.17-.69-3.6-2.12-3.6-5.44C2.51,15.78,6.36,8.86,9.75,6a2,2,0,0,1-1.58-2A2.05,2.05,0,0,1,10.22,2h4.11m7.2,28.78a1,1,0,0,1,1,1v2.05a1,1,0,0,1-1,1H3a1,1,0,0,1-1-1V31.81a1,1,0,0,1,1-1h18.5M14.33,0H10.22A4.06,4.06,0,0,0,6.17,4.06a4,4,0,0,0,.6,2.1C3.55,9.82.51,15.94.51,20.49c0,3.24,1.21,5.51,3.6,6.77v1.52H3a3,3,0,0,0-3,3v2.05a3,3,0,0,0,3,3h18.5a3,3,0,0,0,3-3V31.81a3,3,0,0,0-3-3H20.44V27.26C22.83,26,24,23.73,24,20.49a19.37,19.37,0,0,0-1.89-7.41,1.93,1.93,0,0,0-.8-.89A2.07,2.07,0,0,0,21.12,11a27.69,27.69,0,0,0-3.33-4.84,4,4,0,0,0,.6-2.1A4.06,4.06,0,0,0,14.33,0Z"/></g></g></svg>