<svg xmlns="http://www.w3.org/2000/svg" viewBox="0 0 32.78 36.89"><defs><style>.cls-1{fill:#1f325e;}.cls-2{fill:#e4e8f6;}</style></defs><g id="Livello_2" data-name="Livello 2"><g id="Livello_1-2" data-name="Livello 1"><path class="cls-1" d="M5.08,35.89a2,2,0,0,1-2-2V31.81a2,2,0,0,1,2-2H27.69a2,2,0,0,1,2,2v2.05a2,2,0,0,1-2,2Zm1.71-6.17a1,1,0,0,1-1-.67L1.15,15.27A3.13,3.13,0,0,1,1,14.33a3.06,3.06,0,0,1,3.05-3.05h9.28V10.19H11.76a1.51,1.51,0,0,1-1.51-1.51V5.6a1.52,1.52,0,0,1,1.51-1.52h1.57V2.51A1.52,1.52,0,0,1,14.85,1h3.08a1.52,1.52,0,0,1,1.51,1.51V4.08H21A1.52,1.52,0,0,1,22.53,5.6V8.68A1.51,1.51,0,0,1,21,10.19H19.44v1.09h9.28a3.06,3.06,0,0,1,3.06,3.05,3.21,3.21,0,0,1-.14.92l-4.7,13.8a1,1,0,0,1-1,.67Z"/><path class="cls-2" d="M17.93,2a.51.51,0,0,1,.51.51V5.08H21a.52.52,0,0,1,.52.52V8.68a.51.51,0,0,1-.52.51H18.44v3.09H28.72a2.05,2.05,0,0,1,2.06,2.05,2.12,2.12,0,0,1-.1.62L26,28.72H6.79L2.09,15A2.11,2.11,0,0,1,2,14.33a2.05,2.05,0,0,1,2.05-2.05H14.33V9.19H11.76a.51.51,0,0,1-.51-.51V5.6a.51.51,0,0,1,.51-.52h2.57V2.51A.51.51,0,0,1,14.85,2h3.08m9.76,28.78a1,1,0,0,1,1,1v2.05a1,1,0,0,1-1,1H5.08a1,1,0,0,1-1-1V31.81a1,1,0,0,1,1-1H27.69M17.93,0H14.85a2.52,2.52,0,0,0-2.52,2.51v.57h-.57A2.52,2.52,0,0,0,9.25,5.6V8.68a2.5,2.5,0,0,0,.57,1.6H4.05a4.06,4.06,0,0,0-4,4.05,3.83,3.83,0,0,0,.19,1.21L4.7,28.8a3,3,0,0,0-2.65,3v2.05a3,3,0,0,0,3,3H27.69a3,3,0,0,0,3-3V31.81a3,3,0,0,0-2.65-3l4.51-13.21a4.35,4.35,0,0,0,.2-1.26,4.06,4.06,0,0,0-4.06-4.05H23a2.51,2.51,0,0,0,.58-1.6V5.6A2.52,2.52,0,0,0,21,3.08h-.57V2.51A2.51,2.51,0,0,0,17.93,0Z"/></g></g></svg>