<svg xmlns="http://www.w3.org/2000/svg" viewBox="0 0 28.09 34.12"><defs><style>.cls-1{fill:#1f325e;}.cls-2{fill:#e4e8f6;}</style></defs><g id="Livello_2" data-name="Livello 2"><g id="Livello_1-2" data-name="Livello 1"><path class="cls-1" d="M3,33.12a2,2,0,0,1-2-2v-2a2,2,0,0,1,2-2H25.09a2,2,0,0,1,2,2v2a2,2,0,0,1-2,2Zm2.19-6a1,1,0,0,1-1-1.17A49.78,49.78,0,0,0,5,16.67L1.55,14.94A1,1,0,0,1,1,14.05V3A2,2,0,0,1,3,1H6.52a2,2,0,0,1,2,2V5h1V3a2,2,0,0,1,2-2h5a2,2,0,0,1,2,2V5h1V3a2,2,0,0,1,2-2h3.52a2,2,0,0,1,2,2V14.05a1,1,0,0,1-.55.89l-3.46,1.73a50.66,50.66,0,0,0,.81,9.25,1,1,0,0,1-1,1.17Zm9.86-8v-3a1,1,0,0,0-2,0v3Z"/><path class="cls-2" d="M25.09,2a1,1,0,0,1,1,1V14.05l-4,2a51.92,51.92,0,0,0,.83,10H5.19a52.48,52.48,0,0,0,.83-10l-4-2V3A1,1,0,0,1,3,2H6.52a1,1,0,0,1,1,1V6h3V3a1,1,0,0,1,1-1h5a1,1,0,0,1,1,1V6h3V3a1,1,0,0,1,1-1h3.52M12,20.07h4v-4a2,2,0,0,0-4,0v4m13.05,8a1,1,0,0,1,1,1v2a1,1,0,0,1-1,1H3a1,1,0,0,1-1-1v-2a1,1,0,0,1,1-1H25.09m0-28.1H21.57a3,3,0,0,0-2.5,1.35A3,3,0,0,0,16.56,0h-5A3,3,0,0,0,9,1.35,3,3,0,0,0,6.52,0H3A3,3,0,0,0,0,3V14.05a2,2,0,0,0,1.11,1.78L4,17.29a49.42,49.42,0,0,1-.79,8.45,2.19,2.19,0,0,0,0,.36H3a3,3,0,0,0-3,3v2a3,3,0,0,0,3,3H25.09a3,3,0,0,0,3-3v-2a3,3,0,0,0-3-3h-.18a1.47,1.47,0,0,0,0-.36,49.42,49.42,0,0,1-.79-8.45L27,15.83a2,2,0,0,0,1.1-1.78V3a3,3,0,0,0-3-3ZM14,18.07v0Z"/></g></g></svg>