<svg xmlns="http://www.w3.org/2000/svg" viewBox="0 0 28.67 34.83"><defs><style>.cls-1{fill:#fff;}.cls-2{fill:#2b3f73;}</style></defs><g id="Livello_2" data-name="Livello 2"><g id="Livello_1-2" data-name="Livello 1"><path class="cls-1" d="M3,33.83a2,2,0,0,1-2-2V29.75a2,2,0,0,1,2-2H25.64a2,2,0,0,1,2,2v2.06a2,2,0,0,1-2,2Zm0-6.16v-.93h0v-1a6.12,6.12,0,0,1,3.4-5.5l1.35-.67a3.12,3.12,0,0,1-1.14.21,3,3,0,0,1-1.24-.26L2.81,18.36A3.06,3.06,0,0,1,1,15.57V6.75A2.5,2.5,0,0,1,1.74,5l.07-.07L1.22,3.7A2.12,2.12,0,0,1,1,2.77,1.77,1.77,0,0,1,2.77,1h9.5A13.35,13.35,0,0,1,25.6,14.33V27.67Zm8.21-12.74a.52.52,0,0,0-.25.33l-.61,2a3,3,0,0,1-.95,1.46l.66-.34a2.06,2.06,0,0,0,1.15-1.86ZM5.34,9.17a.27.27,0,0,0-.28.28.28.28,0,1,0,.56,0A.27.27,0,0,0,5.34,9.17Z"/><path class="cls-2" d="M12.27,2A12.33,12.33,0,0,1,24.6,14.33V26.67H4.06v-.93h0a5.15,5.15,0,0,1,2.84-4.6l3.68-1.84a3.08,3.08,0,0,0,1.7-2.76h0V13.31L10.85,14a1.55,1.55,0,0,0-.8,1l-.59,2a2.09,2.09,0,0,1-1.21,1.32l-.82.33a2.19,2.19,0,0,1-.77.14,2.12,2.12,0,0,1-.83-.17L3.22,17.45A2.05,2.05,0,0,1,2,15.57H2V6.75H2a1.54,1.54,0,0,1,.45-1.09L3,5.08,2.12,3.26A1,1,0,0,1,2,2.77H2A.78.78,0,0,1,2.77,2h9.5M5.34,10.74A1.29,1.29,0,1,0,4.06,9.45a1.28,1.28,0,0,0,1.28,1.29m20.3,18a1,1,0,0,1,1,1v2.06a1,1,0,0,1-1,1H3a1,1,0,0,1-1-1V29.75a1,1,0,0,1,1-1H25.64M12.27,0H2.77A2.77,2.77,0,0,0,0,2.77,3,3,0,0,0,.33,4.15l.29.59a3.56,3.56,0,0,0-.62,2v8.82a4,4,0,0,0,2.41,3.7l2.2,1a7.11,7.11,0,0,0-2.56,5.49v1.15a3,3,0,0,0-2,2.86v2.06a3,3,0,0,0,3,3H25.64a3,3,0,0,0,3-3V29.75a3,3,0,0,0-2.07-2.87V14.33A14.34,14.34,0,0,0,12.27,0Z"/></g></g></svg>