<svg xmlns="http://www.w3.org/2000/svg" viewBox="0 0 24.56 34.83"><defs><style>.cls-1{fill:#fff;}.cls-2{fill:#2b3f73;}</style></defs><g id="Livello_2" data-name="Livello 2"><g id="Livello_1-2" data-name="Livello 1"><path class="cls-1" d="M3,33.83a2,2,0,0,1-2-2V29.75a2,2,0,0,1,2-2h18.5a2,2,0,0,1,2,2v2.06a2,2,0,0,1-2,2Zm1.9-6.16.82-1.49a14.27,14.27,0,0,0,1.41-6.73h0a2,2,0,0,1-2-2V15.36a2,2,0,0,1,1.21-1.85,7.68,7.68,0,1,1,11.92,0,2,2,0,0,1,1.21,1.85v2.06a2,2,0,0,1-2,2h0a14.4,14.4,0,0,0,1.42,6.73l.82,1.49Z"/><path class="cls-2" d="M12.28,2a6.67,6.67,0,0,1,3.53,12.33h1.61a1,1,0,0,1,1,1v2.06a1,1,0,0,1-1,1h-1v.35a16.08,16.08,0,0,0,1.54,7.87H6.62A16.08,16.08,0,0,0,8.17,18.8v-.35h-1a1,1,0,0,1-1-1V15.36a1,1,0,0,1,1-1H8.75A6.67,6.67,0,0,1,12.28,2m9.25,26.72a1,1,0,0,1,1,1v2.06a1,1,0,0,1-1,1H3a1,1,0,0,1-1-1V29.75a1,1,0,0,1,1-1h18.5M12.28,0A8.68,8.68,0,0,0,3.6,8.68a8.56,8.56,0,0,0,1.33,4.61,3,3,0,0,0-.82,2.07v2.06a3,3,0,0,0,2,2.86A12.3,12.3,0,0,1,4.87,25.7l-.56,1H3a3,3,0,0,0-3,3v2.06a3,3,0,0,0,3,3h18.5a3,3,0,0,0,3-3V29.75a3,3,0,0,0-3-3H20.25l-.57-1a12.43,12.43,0,0,1-1.26-5.42,3,3,0,0,0,2-2.86V15.36a3.07,3.07,0,0,0-.82-2.07A8.56,8.56,0,0,0,21,8.68,8.69,8.69,0,0,0,12.28,0Z"/></g></g></svg>